<svg width="800" height="800" viewBox="0 0 800 800" fill="none" xmlns="http://www.w3.org/2000/svg">
<path d="M329.088 616C253.728 616 189.432 589.328 136.048 535.92C82.656 482.496 56 418.112 56 342.768C56 288.56 71.312 238.384 101.872 192C132.52 145.68 172.544 111.552 221.96 89.52C225.08 87.152 228.24 87.576 231.352 90.696C235.272 93.072 236.48 96.552 234.896 101.304C222.392 131.224 216.096 161.368 216.096 192.016C216.096 261.904 241.024 321.76 290.872 371.632C340.704 421.496 400.528 446.432 470.384 446.432C508.824 446.432 542.2 440.568 570.448 428.792C573.568 426.368 576.672 426.776 579.8 429.888C583.696 432.272 584.92 435.76 583.32 440.512C562.944 493.92 529.792 536.504 483.848 568.304C437.96 600.096 386.368 616 329.088 616Z" fill="#FA870B"/>
<path d="M218.304 716.464V716.432L215.592 716.464C128.384 716.464 57.52 647.096 56.024 560.96L56 558.208C56 470.808 127.456 399.96 215.6 399.96C296 399.96 362.512 458.912 373.576 535.6H377.072V534.536C377.072 435.072 457.576 354.248 557.496 352.64L560.536 352.616C661.856 352.616 744 434.064 744 534.536C744 635.016 661.856 716.456 560.536 716.456L562.568 716.44V716.464H218.312H218.304Z" fill="#DFF1FB"/>
<path d="M294.16 246.768H624.92C646.973 246.768 658 257.795 658 279.848V279.84C658 301.893 646.973 312.92 624.92 312.92H294.16C272.107 312.92 261.08 301.893 261.08 279.84V279.848C261.08 257.795 272.107 246.768 294.16 246.768Z" fill="#DFF1FB"/>
<path d="M419.848 127.696H591.84C613.893 127.696 624.92 138.723 624.92 160.776V160.768C624.92 182.821 613.893 193.848 591.84 193.848H419.848C397.795 193.848 386.768 182.821 386.768 160.768V160.776C386.768 138.723 397.795 127.696 419.848 127.696Z" fill="white"/>
</svg>
