<svg width="800" height="800" viewBox="0 0 800 800" fill="none" xmlns="http://www.w3.org/2000/svg">
<path d="M202.856 246.432C202.856 271.44 207.782 296.203 217.352 319.307C226.922 342.411 240.949 363.405 258.632 381.088C276.315 398.771 297.309 412.798 320.413 422.368C343.517 431.938 368.28 436.864 393.288 436.864C418.296 436.864 443.059 431.938 466.163 422.368C489.267 412.798 510.26 398.771 527.944 381.088C545.627 363.405 559.654 342.411 569.224 319.307C578.794 296.203 583.72 271.44 583.72 246.432C583.72 195.926 563.657 147.489 527.944 111.776C492.231 76.0633 443.794 56 393.288 56C342.782 56 294.345 76.0633 258.632 111.776C222.919 147.489 202.856 195.926 202.856 246.432Z" fill="#F2FAFE"/>
<path d="M230.712 522.856L230.704 522.832L228.192 522.856C147.248 522.856 81.464 458.504 80.024 378.576L80 375.92C80 294.752 146.352 228.96 228.192 228.96C302.856 228.96 364.616 283.704 374.888 354.92L378.136 354.912V353.928C378.136 261.568 452.888 186.512 545.68 185.024L548.496 185C642.576 185 718.856 260.632 718.856 353.928C718.856 447.224 642.584 522.856 548.496 522.856L550.384 522.84V522.856H230.72H230.712Z" fill="#DFF1FB"/>
<path opacity="0.8" d="M277.36 557.28C282.717 559.23 287.081 563.228 289.492 568.394C291.903 573.561 292.163 579.473 290.216 584.832L262.904 659.872C261.938 662.525 260.46 664.962 258.552 667.044C256.645 669.126 254.346 670.812 251.788 672.005C249.229 673.198 246.46 673.876 243.639 674C240.818 674.123 238.001 673.689 235.348 672.724C232.695 671.759 230.257 670.28 228.176 668.373C226.094 666.465 224.408 664.167 223.215 661.608C222.021 659.049 221.344 656.28 221.22 653.459C221.097 650.639 221.53 647.821 222.496 645.168L249.808 570.128C250.773 567.474 252.252 565.037 254.16 562.955C256.067 560.873 258.367 559.187 260.926 557.994C263.485 556.801 266.255 556.124 269.076 556.001C271.897 555.879 274.715 556.313 277.368 557.28H277.36Z" fill="#DFF1FB"/>
<path d="M379.52 559.128C382.174 560.093 384.611 561.572 386.693 563.48C388.775 565.388 390.461 567.687 391.654 570.246C392.847 572.806 393.524 575.575 393.647 578.396C393.769 581.217 393.335 584.035 392.368 586.688L344.048 719.448C342.098 724.806 338.099 729.171 332.932 731.581C327.764 733.991 321.85 734.25 316.492 732.3C311.133 730.35 306.769 726.352 304.359 721.184C301.949 716.016 301.69 710.102 303.64 704.744L351.96 571.976C353.911 566.618 357.911 562.255 363.079 559.845C368.248 557.436 374.161 557.178 379.52 559.128ZM483.944 559.128C486.597 560.093 489.035 561.572 491.117 563.48C493.199 565.388 494.885 567.687 496.078 570.246C497.271 572.806 497.948 575.575 498.071 578.396C498.193 581.217 497.759 584.035 496.792 586.688L448.48 719.44C447.514 722.093 446.036 724.529 444.129 726.611C442.222 728.692 439.923 730.377 437.365 731.57C434.806 732.763 432.038 733.441 429.218 733.564C426.397 733.687 423.581 733.253 420.928 732.288C418.275 731.323 415.839 729.844 413.757 727.937C411.676 726.03 409.991 723.731 408.798 721.173C407.605 718.614 406.927 715.846 406.804 713.026C406.681 710.206 407.114 707.389 408.08 704.736L456.4 571.968C458.351 566.612 462.35 562.25 467.516 559.841C472.683 557.431 478.594 557.172 483.952 559.12L483.944 559.128ZM569.624 558.016C572.277 558.981 574.715 560.46 576.797 562.368C578.879 564.276 580.565 566.575 581.758 569.134C582.951 571.694 583.628 574.463 583.751 577.284C583.873 580.105 583.439 582.923 582.472 585.576L546.76 683.704C544.733 688.959 540.726 693.209 535.599 695.541C530.472 697.873 524.635 698.1 519.343 696.174C514.05 694.248 509.724 690.323 507.295 685.241C504.866 680.16 504.527 674.328 506.352 669L542.072 570.864C543.037 568.211 544.516 565.775 546.423 563.693C548.33 561.612 550.628 559.927 553.187 558.734C555.745 557.541 558.514 556.863 561.334 556.74C564.154 556.617 566.971 557.051 569.624 558.016Z" fill="#DFF1FB"/>
</svg>
