<svg width="800" height="800" viewBox="0 0 800 800" fill="none" xmlns="http://www.w3.org/2000/svg">
<path d="M197.096 249.888C197.096 275.35 202.111 300.562 211.855 324.086C221.599 347.609 235.88 368.983 253.884 386.988C271.889 404.992 293.263 419.273 316.786 429.017C340.31 438.761 365.522 443.776 390.984 443.776C416.446 443.776 441.658 438.761 465.182 429.017C488.705 419.273 510.079 404.992 528.083 386.988C546.088 368.983 560.369 347.609 570.113 324.086C579.857 300.562 584.872 275.35 584.872 249.888C584.872 198.466 564.445 149.15 528.083 112.788C491.722 76.4274 442.406 56 390.984 56C339.562 56 290.245 76.4274 253.884 112.788C217.523 149.15 197.096 198.466 197.096 249.888Z" fill="#F2FAFE"/>
<path d="M225.456 531.344L225.448 531.32L222.888 531.344C140.464 531.344 73.472 465.808 72.024 384.416L72 381.728C72 299.088 139.552 232.104 222.888 232.104C298.904 232.104 361.792 287.84 372.248 360.344H375.56V359.344C375.56 265.304 451.672 188.888 546.144 187.368L549.016 187.344C644.816 187.344 722.472 264.352 722.472 359.344C722.472 454.336 644.816 531.344 549.016 531.344L550.936 531.328L550.944 531.344H225.456Z" fill="#DFF1FB"/>
<path d="M212.728 562.616C231.491 562.616 240.872 571.997 240.872 590.76C240.872 609.523 231.491 618.904 212.728 618.904C193.965 618.904 184.584 609.523 184.584 590.76C184.584 571.997 193.965 562.616 212.728 562.616Z" fill="#DFF1FB"/>
<path d="M319.056 562.616C337.819 562.616 347.2 571.997 347.2 590.76C347.2 609.523 337.819 618.904 319.056 618.904C300.293 618.904 290.912 609.523 290.912 590.76C290.912 571.997 300.293 562.616 319.056 562.616Z" fill="#DFF1FB"/>
<path d="M425.384 562.616C444.147 562.616 453.528 571.997 453.528 590.76C453.528 609.523 444.147 618.904 425.384 618.904C406.621 618.904 397.24 609.523 397.24 590.76C397.24 571.997 406.621 562.616 425.384 562.616Z" fill="#DFF1FB"/>
<path d="M531.704 562.616C550.467 562.616 559.848 571.997 559.848 590.76C559.848 609.523 550.467 618.904 531.704 618.904C512.941 618.904 503.56 609.523 503.56 590.76C503.56 571.997 512.941 562.616 531.704 562.616Z" fill="#DFF1FB"/>
<path d="M262.76 650.184C281.523 650.184 290.904 659.565 290.904 678.328C290.904 697.091 281.523 706.472 262.76 706.472C243.997 706.472 234.616 697.091 234.616 678.328C234.616 659.565 243.997 650.184 262.76 650.184Z" fill="#DFF1FB"/>
<path d="M375.344 650.184C380.528 650.184 384.728 654.384 384.728 659.56V680.84L403.152 670.2C405.308 668.956 407.869 668.619 410.274 669.263C412.678 669.907 414.728 671.48 415.972 673.636C417.216 675.792 417.554 678.353 416.909 680.758C416.265 683.162 414.692 685.212 412.536 686.456L394.104 697.088L412.536 707.728C413.633 708.329 414.598 709.142 415.376 710.121C416.153 711.1 416.728 712.224 417.065 713.428C417.402 714.632 417.495 715.891 417.338 717.132C417.182 718.372 416.78 719.569 416.154 720.652C415.529 721.734 414.694 722.681 413.697 723.436C412.701 724.192 411.564 724.74 410.353 725.05C409.141 725.36 407.881 725.424 406.644 725.24C405.407 725.055 404.22 724.626 403.152 723.976L384.728 713.336V734.616C384.728 737.105 383.739 739.492 381.98 741.251C380.22 743.011 377.833 744 375.344 744C372.855 744 370.468 743.011 368.709 741.251C366.949 739.492 365.96 737.105 365.96 734.616V713.336L347.536 723.976C345.389 725.117 342.883 725.381 340.546 724.711C338.209 724.041 336.223 722.49 335.006 720.385C333.79 718.28 333.438 715.785 334.025 713.425C334.612 711.066 336.091 709.026 338.152 707.736L356.584 697.088L338.152 686.448C337.039 685.856 336.057 685.047 335.264 684.067C334.471 683.088 333.883 681.959 333.536 680.747C333.189 679.536 333.089 678.267 333.243 677.016C333.397 675.765 333.801 674.558 334.432 673.467C335.062 672.376 335.906 671.423 336.913 670.665C337.92 669.907 339.069 669.359 340.292 669.055C341.515 668.751 342.787 668.696 344.031 668.895C345.276 669.093 346.468 669.539 347.536 670.208L365.96 680.84V659.56C365.96 654.384 370.168 650.184 375.344 650.184Z" fill="#DFF1FB"/>
<path d="M469.16 650.184C487.923 650.184 497.304 659.565 497.304 678.328C497.304 697.091 487.923 706.472 469.16 706.472C450.397 706.472 441.016 697.091 441.016 678.328C441.016 659.565 450.397 650.184 469.16 650.184Z" fill="#DFF1FB"/>
</svg>
