<svg width="800" height="800" viewBox="0 0 800 800" fill="none" xmlns="http://www.w3.org/2000/svg">
<path d="M197.096 249.888C197.096 275.35 202.111 300.562 211.855 324.086C221.599 347.609 235.88 368.983 253.884 386.988C271.889 404.992 293.263 419.273 316.786 429.017C340.31 438.761 365.522 443.776 390.984 443.776C416.446 443.776 441.658 438.761 465.182 429.017C488.705 419.273 510.079 404.992 528.083 386.988C546.088 368.983 560.369 347.609 570.113 324.086C579.857 300.562 584.872 275.35 584.872 249.888C584.872 198.466 564.445 149.15 528.083 112.788C491.722 76.4274 442.406 56 390.984 56C339.562 56 290.245 76.4274 253.884 112.788C217.523 149.15 197.096 198.466 197.096 249.888Z" fill="#F2FAFE"/>
<path d="M225.456 531.344L225.448 531.32L222.888 531.344C140.464 531.344 73.472 465.808 72.024 384.416L72 381.728C72 299.088 139.552 232.104 222.888 232.104C298.904 232.104 361.792 287.84 372.248 360.344H375.56V359.344C375.56 265.304 451.672 188.888 546.144 187.368L549.016 187.344C644.816 187.344 722.472 264.352 722.472 359.344C722.472 454.336 644.816 531.344 549.016 531.344L550.936 531.328L550.944 531.344H225.456Z" fill="#DFF1FB"/>
<path d="M212.728 562.616C231.491 562.616 240.872 571.997 240.872 590.76C240.872 609.523 231.491 618.904 212.728 618.904C193.965 618.904 184.584 609.523 184.584 590.76C184.584 571.997 193.965 562.616 212.728 562.616Z" fill="#DFF1FB"/>
<path d="M425.384 562.616C444.147 562.616 453.528 571.997 453.528 590.76C453.528 609.523 444.147 618.904 425.384 618.904C406.621 618.904 397.24 609.523 397.24 590.76C397.24 571.997 406.621 562.616 425.384 562.616Z" fill="#DFF1FB"/>
<path d="M375.344 650.184C380.528 650.184 384.728 654.384 384.728 659.56V680.84L403.152 670.2C405.308 668.956 407.869 668.618 410.274 669.263C412.678 669.907 414.728 671.48 415.972 673.636C417.216 675.792 417.554 678.353 416.909 680.758C416.265 683.162 414.692 685.212 412.536 686.456L394.104 697.088L412.536 707.728C413.633 708.329 414.598 709.142 415.376 710.121C416.153 711.1 416.728 712.224 417.065 713.428C417.402 714.632 417.495 715.891 417.339 717.132C417.182 718.372 416.78 719.569 416.154 720.651C415.529 721.734 414.694 722.681 413.697 723.436C412.701 724.192 411.564 724.74 410.353 725.05C409.142 725.36 407.881 725.424 406.644 725.24C405.407 725.055 404.22 724.626 403.152 723.976L384.728 713.336V734.616C384.728 737.105 383.739 739.492 381.98 741.251C380.22 743.011 377.833 744 375.344 744C372.855 744 370.468 743.011 368.709 741.251C366.949 739.492 365.96 737.105 365.96 734.616V713.336L347.536 723.976C345.389 725.117 342.883 725.381 340.546 724.711C338.209 724.041 336.223 722.49 335.006 720.385C333.79 718.28 333.438 715.785 334.025 713.425C334.612 711.066 336.091 709.026 338.152 707.736L356.584 697.088L338.152 686.448C337.039 685.856 336.057 685.047 335.264 684.067C334.471 683.088 333.883 681.959 333.536 680.747C333.189 679.536 333.089 678.267 333.243 677.016C333.397 675.765 333.801 674.558 334.432 673.467C335.062 672.376 335.906 671.423 336.913 670.665C337.92 669.907 339.069 669.359 340.292 669.055C341.515 668.751 342.787 668.696 344.031 668.894C345.276 669.093 346.468 669.539 347.536 670.208L365.96 680.84V659.56C365.96 654.384 370.168 650.184 375.344 650.184ZM270.24 650.184C275.432 650.184 279.632 654.384 279.632 659.56V680.84L298.056 670.2C300.212 668.956 302.773 668.618 305.178 669.263C307.582 669.907 309.632 671.48 310.876 673.636C312.12 675.792 312.458 678.353 311.813 680.758C311.169 683.162 309.596 685.212 307.44 686.456L289 697.088L307.44 707.728C308.537 708.329 309.502 709.142 310.28 710.121C311.057 711.1 311.632 712.224 311.969 713.428C312.306 714.632 312.399 715.891 312.243 717.132C312.086 718.372 311.684 719.569 311.058 720.651C310.433 721.734 309.598 722.681 308.601 723.436C307.605 724.192 306.468 724.74 305.257 725.05C304.045 725.36 302.785 725.424 301.548 725.24C300.311 725.055 299.124 724.626 298.056 723.976L279.624 713.336V734.616C279.661 735.871 279.445 737.12 278.99 738.29C278.535 739.46 277.85 740.527 276.976 741.428C276.101 742.328 275.055 743.044 273.898 743.533C272.742 744.022 271.499 744.274 270.244 744.274C268.989 744.274 267.746 744.022 266.59 743.533C265.433 743.044 264.387 742.328 263.512 741.428C262.638 740.527 261.953 739.46 261.498 738.29C261.043 737.12 260.827 735.871 260.864 734.616V713.336L242.44 723.976C240.293 725.117 237.787 725.381 235.45 724.711C233.113 724.041 231.127 722.49 229.91 720.385C228.694 718.28 228.342 715.785 228.929 713.425C229.516 711.066 230.995 709.026 233.056 707.736L251.48 697.088L233.056 686.448C231.943 685.856 230.961 685.047 230.168 684.067C229.375 683.088 228.787 681.959 228.44 680.747C228.093 679.536 227.993 678.267 228.147 677.016C228.301 675.765 228.705 674.558 229.336 673.467C229.966 672.376 230.81 671.423 231.817 670.665C232.824 669.907 233.973 669.359 235.196 669.055C236.419 668.751 237.691 668.696 238.935 668.894C240.18 669.093 241.372 669.539 242.44 670.208L260.856 680.84L260.864 659.56C260.864 654.384 265.064 650.184 270.248 650.184H270.24ZM320.28 543.856C325.464 543.856 329.664 548.056 329.664 553.24V574.512L348.088 563.872C350.244 562.628 352.805 562.29 355.21 562.935C357.614 563.579 359.664 565.152 360.908 567.308C362.152 569.464 362.49 572.025 361.845 574.43C361.201 576.834 359.628 578.884 357.472 580.128L339.04 590.76L357.472 601.4C358.539 602.016 359.475 602.836 360.225 603.814C360.976 604.792 361.526 605.908 361.845 607.098C362.164 608.289 362.246 609.53 362.085 610.752C361.924 611.974 361.524 613.153 360.908 614.22C360.292 615.287 359.472 616.223 358.494 616.973C357.516 617.724 356.4 618.274 355.21 618.593C354.019 618.912 352.778 618.994 351.556 618.833C350.334 618.672 349.155 618.272 348.088 617.656L329.664 607.008V628.288C329.593 630.728 328.573 633.045 326.822 634.746C325.071 636.447 322.725 637.398 320.284 637.398C317.843 637.398 315.497 636.447 313.746 634.746C311.995 633.045 310.975 630.728 310.904 628.288L310.896 607.008L292.472 617.648C291.404 618.325 290.209 618.778 288.961 618.982C287.713 619.185 286.437 619.134 285.209 618.832C283.981 618.53 282.826 617.983 281.815 617.223C280.804 616.463 279.957 615.507 279.324 614.412C278.692 613.317 278.288 612.105 278.135 610.85C277.983 609.594 278.086 608.321 278.439 607.106C278.791 605.892 279.385 604.761 280.185 603.781C280.986 602.802 281.976 601.995 283.096 601.408L301.52 590.76L283.096 580.12C281.976 579.533 280.986 578.726 280.185 577.746C279.385 576.767 278.791 575.636 278.439 574.422C278.086 573.207 277.983 571.934 278.135 570.678C278.288 569.423 278.692 568.211 279.324 567.116C279.957 566.021 280.804 565.064 281.815 564.305C282.826 563.545 283.981 562.998 285.209 562.696C286.437 562.393 287.713 562.343 288.961 562.546C290.209 562.75 291.404 563.203 292.472 563.88L310.896 574.512V553.232C310.896 548.056 315.104 543.856 320.28 543.856ZM532.936 543.856C538.12 543.856 542.32 548.056 542.32 553.24V574.512L560.744 563.872C562.9 562.628 565.461 562.29 567.866 562.935C570.27 563.579 572.32 565.152 573.564 567.308C574.808 569.464 575.146 572.025 574.501 574.43C573.857 576.834 572.284 578.884 570.128 580.128L551.696 590.76L570.128 601.4C571.195 602.016 572.131 602.836 572.881 603.814C573.632 604.792 574.182 605.908 574.501 607.098C574.82 608.289 574.902 609.53 574.741 610.752C574.58 611.974 574.18 613.153 573.564 614.22C572.948 615.287 572.128 616.223 571.15 616.973C570.172 617.724 569.056 618.274 567.866 618.593C566.675 618.912 565.434 618.994 564.212 618.833C562.99 618.672 561.811 618.272 560.744 617.656L542.32 607.008V628.288C542.32 630.777 541.331 633.164 539.572 634.923C537.812 636.683 535.425 637.672 532.936 637.672C530.447 637.672 528.06 636.683 526.301 634.923C524.541 633.164 523.552 630.777 523.552 628.288V607.008L505.128 617.648C502.981 618.789 500.475 619.053 498.138 618.383C495.801 617.713 493.815 616.162 492.598 614.057C491.382 611.952 491.03 609.457 491.617 607.097C492.204 604.738 493.683 602.698 495.744 601.408L514.176 590.76L495.744 580.12C494.631 579.528 493.649 578.719 492.856 577.739C492.063 576.76 491.475 575.631 491.128 574.419C490.781 573.208 490.681 571.939 490.835 570.688C490.989 569.437 491.393 568.23 492.024 567.139C492.654 566.048 493.498 565.095 494.505 564.337C495.512 563.579 496.661 563.031 497.884 562.727C499.107 562.423 500.379 562.368 501.623 562.566C502.868 562.765 504.06 563.211 505.128 563.88L523.552 574.512V553.232C523.552 548.056 527.76 543.856 532.936 543.856Z" fill="#DFF1FB"/>
<path d="M469.16 650.184C487.923 650.184 497.304 659.565 497.304 678.328C497.304 697.091 487.923 706.472 469.16 706.472C450.397 706.472 441.016 697.091 441.016 678.328C441.016 659.565 450.397 650.184 469.16 650.184Z" fill="#DFF1FB"/>
</svg>
