<svg width="214" height="219" viewBox="0 0 214 219" fill="none" xmlns="http://www.w3.org/2000/svg">
<path d="M50.3713 75.8507C50.3713 83.2232 51.7903 90.5235 54.5472 97.3348C57.3041 104.146 61.345 110.335 66.4391 115.548C71.5332 120.761 77.5808 124.897 84.2366 127.718C90.8924 130.539 98.026 131.991 105.23 131.991C112.434 131.991 119.568 130.539 126.224 127.718C132.88 124.897 138.927 120.761 144.021 115.548C149.115 110.335 153.156 104.146 155.913 97.3348C158.67 90.5235 160.089 83.2232 160.089 75.8507C160.089 60.9612 154.309 46.6816 144.021 36.1532C133.733 25.6248 119.78 19.71 105.23 19.71C90.6807 19.71 76.7271 25.6248 66.4391 36.1532C56.1511 46.6816 50.3713 60.9612 50.3713 75.8507Z" fill="#F2FAFE"/>
<path d="M58.3963 157.343V157.334L57.6708 157.343C34.3427 157.343 15.3866 138.355 14.9864 114.778L14.98 114.022C14.98 90.0966 34.0945 70.6997 57.673 70.6997C79.18 70.6997 96.9719 86.84 99.9316 107.833H100.867V107.542C100.867 80.3116 122.402 58.1861 149.13 57.7459L149.943 57.7393C177.046 57.7393 199.02 80.0379 199.02 107.54C199.02 135.046 177.046 157.343 149.943 157.343L150.487 157.336V157.343H58.3984H58.3963ZM65.5525 167.382C66.317 167.666 67.0192 168.102 67.619 168.665C68.2188 169.227 68.7045 169.905 69.0483 170.659C69.3921 171.414 69.5873 172.23 69.6227 173.062C69.6581 173.894 69.533 174.724 69.2547 175.507L62.5971 194.225C62.0352 195.804 60.8831 197.091 59.3942 197.802C57.9052 198.512 56.2015 198.588 54.6577 198.013C53.1139 197.438 51.8566 196.259 51.1623 194.735C50.468 193.212 50.3936 191.468 50.9555 189.888L57.6131 171.168C57.8911 170.386 58.3171 169.667 58.8667 169.053C59.4162 168.44 60.0785 167.942 60.8158 167.591C61.5531 167.239 62.3509 167.039 63.1636 167.003C63.9763 166.967 64.7881 167.095 65.5525 167.379V167.382ZM150.493 167.382C151.258 167.666 151.96 168.102 152.56 168.665C153.16 169.227 153.645 169.905 153.989 170.659C154.333 171.414 154.528 172.23 154.564 173.062C154.599 173.894 154.474 174.724 154.196 175.507L147.538 194.225C147.26 195.007 146.834 195.725 146.284 196.339C145.735 196.953 145.072 197.45 144.335 197.802C143.598 198.153 142.8 198.353 141.987 198.389C141.175 198.426 140.363 198.298 139.599 198.013C138.834 197.728 138.132 197.292 137.532 196.73C136.933 196.168 136.447 195.49 136.103 194.735C135.759 193.981 135.564 193.165 135.529 192.333C135.493 191.501 135.618 190.671 135.896 189.888L142.556 171.168C142.834 170.386 143.26 169.667 143.81 169.053C144.359 168.44 145.022 167.942 145.759 167.591C146.496 167.239 147.294 167.039 148.107 167.003C148.919 166.967 149.731 167.095 150.495 167.379L150.493 167.382ZM111.562 167.382C112.327 167.666 113.029 168.102 113.629 168.665C114.229 169.227 114.715 169.905 115.058 170.659C115.402 171.414 115.597 172.23 115.633 173.062C115.668 173.894 115.543 174.724 115.265 175.507L108.607 194.225C108.329 195.007 107.903 195.725 107.353 196.339C106.804 196.953 106.141 197.45 105.404 197.802C104.667 198.153 103.869 198.353 103.057 198.389C102.244 198.426 101.432 198.298 100.668 198.013C99.9033 197.728 99.2012 197.292 98.6015 196.73C98.0017 196.168 97.5161 195.49 97.1723 194.735C96.8285 193.981 96.6333 193.165 96.5978 192.333C96.5624 191.501 96.6873 190.671 96.9655 189.888L103.623 171.168C103.901 170.386 104.327 169.667 104.877 169.053C105.426 168.44 106.089 167.942 106.826 167.591C107.563 167.239 108.361 167.039 109.174 167.003C109.986 166.967 110.798 167.095 111.562 167.379V167.382Z" fill="#DFF1FB"/>
</svg>
