<svg width="800" height="800" viewBox="0 0 800 800" fill="none" xmlns="http://www.w3.org/2000/svg">
<path d="M188.304 261.08C188.304 288.011 193.609 314.679 203.915 339.561C214.221 364.442 229.327 387.05 248.37 406.093C267.414 425.137 290.022 440.243 314.903 450.549C339.785 460.855 366.452 466.16 393.384 466.16C420.315 466.16 446.983 460.855 471.865 450.549C496.746 440.243 519.354 425.137 538.397 406.093C557.441 387.05 572.547 364.442 582.853 339.561C593.159 314.679 598.464 288.011 598.464 261.08C598.464 206.689 576.857 154.526 538.397 116.067C499.937 77.6066 447.775 56 393.384 56C338.993 56 286.83 77.6066 248.371 116.067C209.911 154.526 188.304 206.689 188.304 261.08Z" fill="#F2FAFE"/>
<path d="M218.304 558.768V558.736L215.592 558.768C128.384 558.768 57.52 489.408 56.024 403.28L56 400.52C56 313.12 127.456 242.264 215.6 242.264C296 242.264 362.512 301.224 373.576 377.912H377.072V376.848C377.072 277.376 457.576 196.552 557.496 194.944L560.536 194.92C661.856 194.92 744 276.376 744 376.84C744 477.32 661.856 558.768 560.536 558.768L562.568 558.744V558.768H218.312H218.304Z" fill="#DFF1FB"/>
<path d="M304.072 591.848C323.917 591.848 333.84 601.771 333.84 621.616C333.84 641.461 323.917 651.384 304.072 651.384C284.227 651.384 274.304 641.461 274.304 621.616C274.304 601.771 284.227 591.848 304.072 591.848Z" fill="#DFF1FB"/>
<path d="M476.072 591.848C495.917 591.848 505.84 601.771 505.84 621.616C505.84 641.461 495.917 651.384 476.072 651.384C456.227 651.384 446.304 641.461 446.304 621.616C446.304 601.771 456.227 591.848 476.072 591.848Z" fill="#DFF1FB"/>
<path d="M237.92 684.464C257.765 684.464 267.688 694.387 267.688 714.232C267.688 734.077 257.765 744 237.92 744C218.075 744 208.152 734.077 208.152 714.232C208.152 694.387 218.075 684.464 237.92 684.464Z" fill="#DFF1FB"/>
<path d="M390.072 684.464C409.917 684.464 419.84 694.387 419.84 714.232C419.84 734.077 409.917 744 390.072 744C370.227 744 360.304 734.077 360.304 714.232C360.304 694.387 370.227 684.464 390.072 684.464Z" fill="#DFF1FB"/>
<path d="M542.232 684.464C562.077 684.464 572 694.387 572 714.232C572 734.077 562.077 744 542.232 744C522.387 744 512.464 734.077 512.464 714.232C512.464 694.387 522.387 684.464 542.232 684.464Z" fill="#DFF1FB"/>
</svg>
