<svg width="800" height="800" viewBox="0 0 800 800" fill="none" xmlns="http://www.w3.org/2000/svg">
<path d="M430.32 680C344.696 680 271.624 649.68 210.96 589C150.304 528.288 120 455.128 120 369.512C120 307.912 137.4 250.888 172.128 198.176C206.96 145.536 252.44 106.76 308.592 81.728C312.128 79.024 315.728 79.512 319.264 83.048C323.72 85.752 325.096 89.712 323.296 95.112C309.08 129.104 301.928 163.36 301.928 198.192C301.928 277.616 330.248 345.632 386.896 402.304C443.528 458.96 511.512 487.304 590.896 487.304C634.576 487.304 672.496 480.64 704.6 467.248C708.136 464.504 711.672 464.96 715.224 468.504C719.648 471.216 721.04 475.176 719.224 480.576C696.072 541.264 658.4 589.648 606.184 625.784C554.056 661.928 495.424 680 430.336 680H430.32Z" fill="#FA870B"/>
<path d="M218.304 698V697.968L215.592 698C128.384 698 57.512 628.632 56.024 542.504L56 539.752C56 452.352 127.456 381.496 215.6 381.496C296 381.496 362.512 440.456 373.576 517.144H377.072V516.08C377.072 416.608 457.576 335.784 557.496 334.176L560.536 334.152C661.856 334.16 744 415.6 744 516.08C744 616.56 661.856 698 560.536 698L562.568 697.976V698H218.312H218.304Z" fill="#DFF1FB"/>
</svg>
