<svg width="800" height="800" viewBox="0 0 800 800" fill="none" xmlns="http://www.w3.org/2000/svg">
<path d="M188.304 245.08C188.304 272.011 193.609 298.679 203.915 323.561C214.221 348.442 229.327 371.05 248.37 390.093C267.414 409.137 290.022 424.243 314.903 434.549C339.785 444.855 366.452 450.16 393.384 450.16C420.315 450.16 446.983 444.855 471.865 434.549C496.746 424.243 519.354 409.137 538.397 390.093C557.441 371.05 572.547 348.442 582.853 323.561C593.159 298.679 598.464 272.011 598.464 245.08C598.464 190.689 576.857 138.527 538.397 100.067C499.937 61.6066 447.775 40 393.384 40C338.993 40 286.83 61.6066 248.371 100.067C209.911 138.527 188.304 190.689 188.304 245.08Z" fill="#F2FAFE"/>
<path d="M218.304 542.768V542.736L215.592 542.768C128.384 542.768 57.52 473.408 56.024 387.28L56 384.52C56 297.12 127.456 226.264 215.6 226.264C296 226.264 362.512 285.224 373.576 361.912H377.072V360.848C377.072 261.376 457.576 180.552 557.496 178.944L560.536 178.92C661.856 178.92 744 260.376 744 360.84C744 461.32 661.856 542.768 560.536 542.768L562.568 542.744V542.768H218.312H218.304Z" fill="#DFF1FB"/>
<path d="M271.688 580.64C277.458 582.74 282.158 587.045 284.753 592.61C287.349 598.174 287.627 604.542 285.528 610.312L247.064 715.992C246.024 718.85 244.431 721.474 242.377 723.716C240.322 725.958 237.846 727.774 235.09 729.059C232.334 730.344 229.352 731.074 226.314 731.207C223.276 731.339 220.242 730.872 217.384 729.832C214.526 728.792 211.902 727.199 209.66 725.145C207.418 723.09 205.602 720.614 204.317 717.858C201.722 712.292 201.443 705.923 203.544 700.152L242.016 594.472C243.056 591.614 244.648 588.989 246.702 586.747C248.757 584.504 251.233 582.689 253.989 581.403C256.745 580.118 259.727 579.389 262.766 579.256C265.804 579.124 268.838 579.591 271.696 580.632L271.688 580.64ZM582.616 580.64C588.386 582.74 593.086 587.045 595.681 592.61C598.277 598.174 598.555 604.542 596.456 610.312L557.984 715.992C555.883 721.762 551.577 726.461 546.012 729.056C540.446 731.651 534.078 731.929 528.308 729.828C522.538 727.728 517.839 723.421 515.244 717.856C512.649 712.29 512.371 705.922 514.472 700.152L552.936 594.472C553.976 591.614 555.568 588.989 557.622 586.747C559.677 584.504 562.153 582.689 564.909 581.403C567.665 580.118 570.647 579.389 573.686 579.256C576.724 579.124 579.758 579.591 582.616 580.632V580.64ZM363.96 578.24C366.818 579.28 369.443 580.872 371.685 582.926C373.928 584.981 375.743 587.457 377.029 590.213C378.314 592.969 379.043 595.952 379.176 598.99C379.308 602.028 378.841 605.063 377.8 607.92L366.488 639C365.448 641.858 363.855 644.482 361.801 646.724C359.746 648.966 357.27 650.782 354.514 652.067C348.948 654.663 342.579 654.941 336.808 652.84C331.037 650.74 326.337 646.433 323.741 640.866C321.146 635.3 320.867 628.931 322.968 623.16L334.28 592.08C335.32 589.222 336.912 586.597 338.966 584.355C341.021 582.112 343.497 580.297 346.253 579.011C349.009 577.726 351.991 576.997 355.03 576.864C358.068 576.732 361.102 577.199 363.96 578.24ZM475.368 578.24C478.226 579.28 480.851 580.872 483.093 582.926C485.336 584.981 487.151 587.457 488.437 590.213C489.722 592.969 490.451 595.952 490.584 598.99C490.716 602.028 490.249 605.063 489.208 607.92L477.896 639C475.795 644.771 471.488 649.472 465.922 652.067C460.356 654.663 453.987 654.941 448.216 652.84C442.445 650.74 437.745 646.433 435.149 640.866C432.554 635.3 432.275 628.931 434.376 623.16L445.696 592.08C446.736 589.222 448.328 586.597 450.382 584.355C452.437 582.112 454.913 580.297 457.669 579.011C460.425 577.726 463.407 576.997 466.446 576.864C469.484 576.732 472.518 577.199 475.376 578.24H475.368ZM330.88 684.08C333.738 685.12 336.363 686.712 338.605 688.766C340.848 690.821 342.663 693.297 343.949 696.053C345.234 698.809 345.963 701.792 346.096 704.83C346.228 707.868 345.761 710.903 344.72 713.76L333.408 744.848C331.307 750.619 327 755.319 321.434 757.915C315.868 760.51 309.499 760.789 303.728 758.688C297.957 756.588 293.257 752.281 290.661 746.714C288.066 741.148 287.787 734.779 289.888 729.008L301.208 697.928C302.248 695.07 303.84 692.445 305.894 690.203C307.949 687.96 310.425 686.145 313.181 684.859C315.937 683.574 318.919 682.845 321.958 682.712C324.996 682.58 328.03 683.047 330.888 684.088L330.88 684.08ZM442.296 684.08C445.154 685.12 447.779 686.712 450.021 688.766C452.264 690.821 454.079 693.297 455.365 696.053C456.65 698.809 457.379 701.792 457.512 704.83C457.644 707.868 457.177 710.903 456.136 713.76L444.816 744.848C443.776 747.705 442.183 750.329 440.129 752.571C438.075 754.812 435.599 756.627 432.844 757.912C427.278 760.507 420.91 760.785 415.14 758.684C409.37 756.584 404.671 752.277 402.076 746.712C399.481 741.146 399.203 734.778 401.304 729.008L412.616 697.928C413.656 695.07 415.248 692.445 417.302 690.203C419.357 687.96 421.833 686.145 424.589 684.859C427.345 683.574 430.327 682.845 433.366 682.712C436.404 682.58 439.438 683.047 442.296 684.088V684.08Z" fill="#DFF1FB"/>
</svg>
