<svg width="800" height="800" viewBox="0 0 800 800" fill="none" xmlns="http://www.w3.org/2000/svg">
<path d="M208.704 243.088C208.704 292.707 228.415 340.293 263.501 375.379C298.587 410.465 346.173 430.176 395.792 430.176C445.411 430.176 492.997 410.465 528.083 375.379C563.169 340.293 582.88 292.707 582.88 243.088C582.88 193.469 563.169 145.883 528.083 110.797C492.997 75.711 445.411 56 395.792 56C346.173 56 298.587 75.711 263.501 110.797C228.415 145.883 208.704 193.469 208.704 243.088Z" fill="#F2FAFE"/>
<path d="M236.064 514.664V514.64L233.592 514.664C154.072 514.664 89.448 451.464 88.024 372.952L88 370.296C88 290.56 153.184 225.928 233.6 225.928C306.944 225.928 367.616 279.704 377.712 349.664H380.904V348.704C380.904 257.968 454.336 184.24 545.48 182.76L548.28 182.736C640.712 182.736 715.648 257.04 715.648 348.704C715.648 440.36 640.712 514.664 548.28 514.664L550.136 514.648V514.664H236.064Z" fill="#DFF1FB"/>
<path d="M223.792 544.84H223.784C241.891 544.84 250.944 553.893 250.944 572V571.992C250.944 590.099 241.891 599.152 223.784 599.152H223.792C205.685 599.152 196.632 590.099 196.632 571.992V572C196.632 553.893 205.685 544.84 223.792 544.84Z" fill="#DFF1FB"/>
<path d="M326.392 544.84H326.384C344.491 544.84 353.544 553.893 353.544 572V571.992C353.544 590.099 344.491 599.152 326.384 599.152H326.392C308.285 599.152 299.232 590.099 299.232 571.992V572C299.232 553.893 308.285 544.84 326.392 544.84Z" fill="#DFF1FB"/>
<path d="M428.984 544.84H428.976C447.083 544.84 456.136 553.893 456.136 572V571.992C456.136 590.099 447.083 599.152 428.976 599.152H428.984C410.877 599.152 401.824 590.099 401.824 571.992V572C401.824 553.893 410.877 544.84 428.984 544.84Z" fill="#DFF1FB"/>
<path d="M531.584 544.84H531.576C549.683 544.84 558.736 553.893 558.736 572V571.992C558.736 590.099 549.683 599.152 531.576 599.152H531.584C513.477 599.152 504.424 590.099 504.424 571.992V572C504.424 553.893 513.477 544.84 531.584 544.84Z" fill="#DFF1FB"/>
<path d="M272.072 629.336H272.064C290.171 629.336 299.224 638.389 299.224 656.496V656.488C299.224 674.595 290.171 683.648 272.064 683.648H272.072C253.965 683.648 244.912 674.595 244.912 656.488V656.496C244.912 638.389 253.965 629.336 272.072 629.336Z" fill="#DFF1FB"/>
<path d="M371.648 605.192H371.656C395.795 605.192 407.864 617.261 407.864 641.4V641.408C407.864 665.547 395.795 677.616 371.656 677.616H371.648C347.509 677.616 335.44 665.547 335.44 641.408V641.4C335.44 617.261 347.509 605.192 371.648 605.192Z" fill="#DFF1FB"/>
<path d="M471.232 629.336H471.224C489.331 629.336 498.384 638.389 498.384 656.496V656.488C498.384 674.595 489.331 683.648 471.224 683.648H471.232C453.125 683.648 444.072 674.595 444.072 656.488V656.496C444.072 638.389 453.125 629.336 471.232 629.336Z" fill="#DFF1FB"/>
<path d="M416.912 689.688H416.904C435.011 689.688 444.064 698.741 444.064 716.848V716.84C444.064 734.947 435.011 744 416.904 744H416.912C398.805 744 389.752 734.947 389.752 716.84V716.848C389.752 698.741 398.805 689.688 416.912 689.688Z" fill="#DFF1FB"/>
<path d="M326.392 689.688H326.384C344.491 689.688 353.544 698.741 353.544 716.848V716.84C353.544 734.947 344.491 744 326.384 744H326.392C308.285 744 299.232 734.947 299.232 716.84V716.848C299.232 698.741 308.285 689.688 326.392 689.688Z" fill="#DFF1FB"/>
</svg>
