<svg width="800" height="800" viewBox="0 0 800 800" fill="none" xmlns="http://www.w3.org/2000/svg">
<path d="M295.984 560C229.76 560 173.264 536.56 126.344 489.624C79.432 442.672 56 386.104 56 319.888C56 272.256 69.456 228.152 96.32 187.392C123.24 146.68 158.408 116.696 201.84 97.336C204.576 95.248 207.36 95.624 210.096 98.36C213.536 100.44 214.608 103.512 213.216 107.688C202.224 133.968 196.688 160.464 196.688 187.4C196.688 248.824 218.6 301.416 262.4 345.24C306.192 389.064 358.768 410.976 420.16 410.976C453.936 410.976 483.264 405.824 508.088 395.472C510.824 393.344 513.56 393.712 516.312 396.44C519.728 398.536 520.8 401.6 519.4 405.776C501.496 452.72 472.36 490.128 432 518.08C391.672 546.024 346.32 560 295.992 560H295.984Z" fill="#FA870B"/>
<path d="M110.488 634.136H396.592C419.296 634.136 430.648 645.488 430.648 668.192V668.2C430.648 690.904 419.296 702.256 396.592 702.256H110.488C87.7839 702.256 76.4319 690.904 76.4319 668.2V668.192C76.4319 645.488 87.7839 634.136 110.488 634.136Z" fill="#DFF1FB"/>
<path d="M110.496 504.72C101.462 504.72 92.7972 501.131 86.409 494.743C80.0208 488.355 76.4319 479.69 76.4319 470.656C76.4319 461.622 80.0208 452.957 86.409 446.569C92.7972 440.181 101.462 436.592 110.496 436.592H573.696C575.216 436.592 576.696 436.696 578.152 436.88C644.104 441.304 696.312 495.84 696.312 562.616C696.312 632.28 639.472 688.632 569.504 688.632C519.52 688.632 474.784 659.616 454.24 615.224C450.488 607.147 450.049 597.922 453.017 589.525C455.985 581.129 462.124 574.229 470.118 570.304C478.113 566.38 487.326 565.743 495.785 568.53C504.243 571.318 511.273 577.308 515.368 585.216L516.056 586.616C525.528 607.072 546.248 620.512 569.496 620.512C601.984 620.512 628.2 594.528 628.2 562.616C628.2 531.28 602.928 505.656 571.264 504.736L569.504 504.712H110.496V504.72ZM144.56 286.736C135.528 286.736 126.865 290.324 120.479 296.711C114.092 303.098 110.504 311.76 110.504 320.792C110.504 329.824 114.092 338.486 120.479 344.873C126.865 351.26 135.528 354.848 144.56 354.848H471.52C473.04 354.848 474.52 354.752 475.976 354.56C541.92 350.144 594.136 295.6 594.136 228.832C594.136 159.168 537.296 102.808 467.32 102.808C417.336 102.808 372.6 131.832 352.064 176.224C348.337 184.297 347.915 193.508 350.889 201.889C353.863 210.269 359.997 217.153 367.98 221.071C375.962 224.989 385.161 225.629 393.609 222.855C402.058 220.08 409.086 214.112 413.192 206.224L413.88 204.832C423.352 184.368 444.064 170.928 467.32 170.928C499.8 170.928 526.016 196.92 526.016 228.832C526.016 260.16 500.752 285.792 469.088 286.704L467.328 286.736H144.544H144.56Z" fill="#DFF1FB"/>
<path d="M667.92 290.256L733.672 356.008C735.172 357.508 736.014 359.543 736.014 361.664C736.014 363.785 735.172 365.82 733.672 367.32L667.912 433.08C666.412 434.58 664.377 435.422 662.256 435.422C660.135 435.422 658.1 434.58 656.6 433.08L590.84 367.32C589.34 365.82 588.498 363.785 588.498 361.664C588.498 359.543 589.34 357.508 590.84 356.008L656.6 290.248C658.1 288.748 660.135 287.906 662.256 287.906C664.377 287.906 666.412 288.748 667.912 290.248L667.92 290.256Z" fill="white"/>
</svg>
