<svg width="800" height="800" viewBox="0 0 800 800" fill="none" xmlns="http://www.w3.org/2000/svg">
<path d="M237.744 631.416H237.752C252.344 631.416 259.64 638.712 259.64 653.304V722.112C259.64 736.704 252.344 744 237.752 744H237.744C223.152 744 215.856 736.704 215.856 722.112V653.304C215.856 638.712 223.152 631.416 237.744 631.416Z" fill="#DFF1FB"/>
<path d="M344.072 612.656H344.08C358.672 612.656 365.968 619.952 365.968 634.544V703.352C365.968 717.944 358.672 725.24 344.08 725.24H344.072C329.48 725.24 322.184 717.944 322.184 703.352V634.544C322.184 619.952 329.48 612.656 344.072 612.656Z" fill="#DFF1FB"/>
<path d="M450.4 631.416H450.408C465 631.416 472.296 638.712 472.296 653.304V722.112C472.296 736.704 465 744 450.408 744H450.4C435.808 744 428.512 736.704 428.512 722.112V653.304C428.512 638.712 435.808 631.416 450.4 631.416Z" fill="#DFF1FB"/>
<path d="M556.728 612.656H556.736C571.328 612.656 578.624 619.952 578.624 634.544V703.352C578.624 717.944 571.328 725.24 556.736 725.24H556.728C542.136 725.24 534.84 717.944 534.84 703.352V634.544C534.84 619.952 542.136 612.656 556.728 612.656Z" fill="#DFF1FB"/>
<path d="M428.672 560C356.744 560 295.368 534.536 244.408 483.56C193.44 432.56 168 371.104 168 299.192C168 247.448 182.616 199.544 211.792 155.272C241.04 111.048 279.248 78.48 326.416 57.44C329.392 55.176 332.416 55.584 335.384 58.56C339.12 60.824 340.28 64.152 338.768 68.688C326.824 97.24 320.816 126.016 320.816 155.272C320.816 221.992 344.616 279.112 392.192 326.728C439.76 374.328 496.864 398.128 563.552 398.128C600.24 398.128 632.096 392.528 659.064 381.28C662.032 378.976 665.008 379.36 667.992 382.336C671.704 384.608 672.872 387.936 671.352 392.472C651.904 443.456 620.256 484.096 576.4 514.456C532.6 544.816 483.36 560 428.672 560Z" fill="#FA870B"/>
<path d="M549.016 243.64C644.816 243.64 722.472 320.64 722.472 415.64C722.472 510.632 644.816 587.64 549.016 587.64L550.936 587.624L550.944 587.64L549.968 587.632H225.456L225.448 587.616L222.888 587.64C140.464 587.64 73.472 522.096 72.024 440.704L72 438.016C72 355.384 139.552 288.4 222.888 288.4C298.904 288.4 361.792 344.136 372.248 416.64H375.56V415.64C375.56 321.592 451.672 245.176 546.144 243.656L549.016 243.64Z" fill="#DFF1FB"/>
</svg>
