<svg width="800" height="800" viewBox="0 0 800 800" fill="none" xmlns="http://www.w3.org/2000/svg">
<path d="M428.672 560C356.744 560 295.368 534.536 244.408 483.56C193.44 432.56 168 371.104 168 299.192C168 247.448 182.616 199.544 211.792 155.272C241.04 111.048 279.248 78.4799 326.416 57.4399C329.392 55.1759 332.416 55.5839 335.384 58.5599C339.12 60.8239 340.28 64.1519 338.768 68.6879C326.824 97.2399 320.816 126.016 320.816 155.272C320.816 221.992 344.616 279.112 392.192 326.728C439.76 374.328 496.864 398.128 563.552 398.128C600.24 398.128 632.096 392.528 659.064 381.28C662.032 378.976 665.008 379.36 667.992 382.336C671.704 384.608 672.872 387.936 671.352 392.472C651.904 443.456 620.256 484.096 576.4 514.456C532.6 544.816 483.36 560 428.672 560Z" fill="#FA870B"/>
<path d="M549.016 243.64C644.816 243.64 722.472 320.64 722.472 415.64C722.472 510.632 644.816 587.64 549.016 587.64L550.936 587.624L550.944 587.64L549.968 587.632H225.456L225.448 587.616L222.888 587.64C140.464 587.64 73.472 522.096 72.024 440.704L72 438.016C72 355.384 139.552 288.4 222.888 288.4C298.904 288.4 361.792 344.136 372.248 416.64H375.56V415.64C375.56 321.592 451.672 245.176 546.144 243.656L549.016 243.64Z" fill="#DFF1FB"/>
<path d="M228.36 612.656C249.208 612.656 259.632 623.08 259.632 643.928C259.632 664.776 249.208 675.2 228.36 675.2C207.512 675.2 197.088 664.776 197.088 643.928C197.088 623.08 207.512 612.656 228.36 612.656Z" fill="#DFF1FB"/>
<path d="M340.944 612.656C361.792 612.656 372.216 623.08 372.216 643.928C372.216 664.776 361.792 675.2 340.944 675.2C320.096 675.2 309.672 664.776 309.672 643.928C309.672 623.08 320.096 612.656 340.944 612.656Z" fill="#DFF1FB"/>
<path d="M453.528 612.656C474.376 612.656 484.8 623.08 484.8 643.928C484.8 664.776 474.376 675.2 453.528 675.2C432.68 675.2 422.256 664.776 422.256 643.928C422.256 623.08 432.68 612.656 453.528 612.656Z" fill="#DFF1FB"/>
<path d="M566.112 612.656C586.96 612.656 597.384 623.08 597.384 643.928C597.384 664.776 586.96 675.2 566.112 675.2C545.264 675.2 534.84 664.776 534.84 643.928C534.84 623.08 545.264 612.656 566.112 612.656Z" fill="#DFF1FB"/>
<path d="M509.816 693.96H509.824C526.501 693.96 534.84 702.299 534.84 718.976V718.984C534.84 735.661 526.501 744 509.824 744H509.816C493.139 744 484.8 735.661 484.8 718.984V718.976C484.8 702.299 493.139 693.96 509.816 693.96Z" fill="#DFF1FB"/>
<path d="M397.232 693.96H397.24C413.917 693.96 422.256 702.299 422.256 718.976V718.984C422.256 735.661 413.917 744 397.24 744H397.232C380.555 744 372.216 735.661 372.216 718.984V718.976C372.216 702.299 380.555 693.96 397.232 693.96Z" fill="#DFF1FB"/>
<path d="M284.656 693.96H284.664C301.341 693.96 309.68 702.299 309.68 718.976V718.984C309.68 735.661 301.341 744 284.664 744H284.656C267.979 744 259.64 735.661 259.64 718.984V718.976C259.64 702.299 267.979 693.96 284.656 693.96Z" fill="#DFF1FB"/>
</svg>
