<svg width="800" height="800" viewBox="0 0 800 800" fill="none" xmlns="http://www.w3.org/2000/svg">
<path d="M411.84 744C313.648 744 229.864 709.24 160.296 639.656C90.744 570.04 56 486.144 56 387.976C56 317.336 75.952 251.952 115.776 191.512C155.712 131.152 207.856 86.688 272.256 57.976C276.304 54.88 280.44 55.44 284.496 59.496C289.592 62.592 291.176 67.136 289.112 73.336C272.808 112.296 264.608 151.592 264.608 191.52C264.608 282.6 297.088 360.584 362.048 425.568C426.976 490.544 504.928 523.04 595.952 523.04C646.032 523.04 689.528 515.4 726.344 500.048C730.4 496.896 734.456 497.424 738.528 501.48C743.6 504.592 745.192 509.136 743.112 515.32C716.568 584.92 673.36 640.4 613.496 681.84C553.712 723.28 486.48 744 411.84 744Z" fill="#FA870B"/>
</svg>
