<svg width="800" height="800" viewBox="0 0 800 800" fill="none" xmlns="http://www.w3.org/2000/svg">
<path d="M398.72 532.4L400.416 605.056H465.664C466.395 605.056 467.112 605.257 467.737 605.636C468.362 606.015 468.871 606.558 469.209 607.206C469.548 607.854 469.702 608.582 469.655 609.312C469.608 610.042 469.362 610.744 468.944 611.344L383.48 733.92C382.997 734.613 382.307 735.134 381.509 735.411C380.711 735.688 379.846 735.704 379.038 735.459C378.23 735.214 377.52 734.72 377.01 734.047C376.501 733.373 376.217 732.556 376.2 731.712L374.488 647.848H309.448C308.701 647.849 307.969 647.642 307.333 647.248C306.698 646.855 306.186 646.292 305.855 645.622C305.523 644.953 305.386 644.204 305.458 643.461C305.531 642.717 305.81 642.009 306.264 641.416L391.552 530.056C392.056 529.398 392.751 528.912 393.543 528.666C394.335 528.42 395.183 528.427 395.971 528.684C396.759 528.941 397.447 529.437 397.941 530.103C398.435 530.769 398.71 531.571 398.728 532.4H398.72Z" fill="#EE921C"/>
<path d="M199.408 253.48C199.408 279.413 204.516 305.093 214.44 329.052C224.365 353.012 238.911 374.782 257.249 393.119C275.586 411.457 297.356 426.003 321.316 435.928C345.275 445.852 370.955 450.96 396.888 450.96C422.821 450.96 448.501 445.852 472.46 435.928C496.42 426.003 518.19 411.457 536.527 393.119C554.865 374.782 569.411 353.012 579.336 329.052C589.26 305.093 594.368 279.413 594.368 253.48C594.368 201.105 573.562 150.875 536.527 113.841C499.493 76.8059 449.263 56 396.888 56C344.513 56 294.283 76.8059 257.249 113.841C220.214 150.875 199.408 201.105 199.408 253.48Z" fill="#F2FAFE"/>
<path d="M228.296 540.152L228.288 540.12L225.68 540.152C141.72 540.152 73.48 473.376 72.024 390.472L72 387.744C72 303.584 140.8 235.36 225.68 235.36C303.104 235.36 367.16 292.128 377.808 365.984H381.176V364.952C381.176 269.168 458.696 191.344 554.928 189.792L557.848 189.768C655.416 189.768 734.52 268.2 734.52 364.952C734.52 461.704 655.416 540.16 557.84 540.16L559.8 540.136V540.16H228.28L228.296 540.152ZM254.056 575.456C259.611 577.48 264.135 581.627 266.633 586.986C269.131 592.345 269.398 598.476 267.376 604.032L243.416 669.88C242.415 672.632 240.881 675.159 238.904 677.318C236.926 679.477 234.542 681.225 231.888 682.462C229.235 683.7 226.363 684.403 223.438 684.531C220.513 684.659 217.591 684.209 214.84 683.208C212.089 682.207 209.561 680.674 207.402 678.696C205.243 676.718 203.495 674.334 202.258 671.68C201.02 669.027 200.317 666.156 200.189 663.23C200.061 660.305 200.511 657.383 201.512 654.632L225.48 588.784C226.481 586.033 228.015 583.505 229.992 581.346C231.97 579.188 234.354 577.439 237.008 576.202C239.661 574.964 242.533 574.261 245.458 574.133C248.383 574.005 251.305 574.455 254.056 575.456Z" fill="#DFF1FB"/>
<path d="M559.834 575.458C573.802 580.542 578.244 590.067 573.16 604.035L549.194 669.881C544.11 683.849 534.584 688.29 520.617 683.207C506.649 678.123 502.207 668.597 507.291 654.63L531.257 588.783C536.341 574.816 545.866 570.374 559.834 575.458Z" fill="#DFF1FB"/>
</svg>
