<svg width="800" height="800" viewBox="0 0 800 800" fill="none" xmlns="http://www.w3.org/2000/svg">
<path d="M188.304 269.08C188.304 296.011 193.609 322.679 203.915 347.561C214.221 372.442 229.327 395.05 248.37 414.093C267.414 433.137 290.022 448.243 314.903 458.549C339.785 468.855 366.452 474.16 393.384 474.16C420.315 474.16 446.983 468.855 471.865 458.549C496.746 448.243 519.354 433.137 538.397 414.093C557.441 395.05 572.547 372.442 582.853 347.561C593.159 322.679 598.464 296.011 598.464 269.08C598.464 214.689 576.857 162.527 538.397 124.067C499.937 85.6066 447.775 64 393.384 64C338.993 64 286.83 85.6066 248.371 124.067C209.911 162.527 188.304 214.689 188.304 269.08Z" fill="#F2FAFE"/>
<path d="M303.192 692.464V630.304H303.672L346.176 692.464H359.752V607.44H345.704V668.768H345.224L303.2 607.44H289.264V692.464H303.2H303.192ZM383.088 704.368L424.408 594.816H412.744L371.304 704.368H383.088ZM442.512 692.464L450.248 671.144H485.848L493.592 692.464H508.472L475.976 607.44H460.136L427.632 692.464H442.512ZM481.688 659.712H454.416L467.872 622.448H468.352L481.688 659.712Z" fill="#DFF1FB"/>
<path d="M218.304 566.768V566.736L215.592 566.768C128.384 566.768 57.52 497.408 56.024 411.28L56 408.52C56 321.12 127.456 250.264 215.6 250.264C296 250.264 362.512 309.224 373.576 385.912H377.072V384.848C377.072 285.376 457.576 204.552 557.496 202.944L560.536 202.92C661.856 202.92 744 284.376 744 384.84C744 485.32 661.856 566.768 560.536 566.768L562.568 566.744V566.768H218.312H218.304Z" fill="#DFF1FB"/>
</svg>
