<svg width="102" height="77" viewBox="0 0 102 77" fill="none" xmlns="http://www.w3.org/2000/svg">
<path d="M23.7645 41.6339C22.2695 38.0245 21.5 34.156 21.5 30.2493C21.5 22.3593 24.6343 14.7924 30.2134 9.21337C35.7924 3.63429 43.3593 0.5 51.2493 0.5C59.1393 0.5 66.7062 3.63429 72.2852 9.21337C77.8643 14.7924 80.9986 22.3593 80.9986 30.2493C80.9986 34.156 80.2291 38.0245 78.7341 41.6339C77.239 45.2432 75.0477 48.5228 72.2852 51.2852C69.5228 54.0477 66.2432 56.239 62.6339 57.7341C59.0245 59.2291 55.156 59.9986 51.2493 59.9986C47.3426 59.9986 43.4741 59.2291 39.8647 57.7341C36.2554 56.239 32.9758 54.0477 30.2134 51.2852C27.4509 48.5228 25.2596 45.2432 23.7645 41.6339Z" fill="#B9DDFD" stroke="black"/>
<path d="M23.5368 76.1676C10.9452 76.166 0.720494 66.1524 0.503502 53.7266C0.503489 53.7259 0.503477 53.7251 0.503464 53.7244L0.5 53.326C0.5 53.3253 0.5 53.3246 0.5 53.3238C0.501179 40.7134 10.8126 30.4832 23.541 30.4832C35.151 30.4832 44.7511 38.9968 46.3476 50.0627L46.4094 50.4913H46.8425H47.3581H47.8581V49.9913V49.8344C47.8581 35.4402 59.5081 23.7374 73.9767 23.5035C73.9773 23.5035 73.978 23.5035 73.9787 23.5035L74.4191 23.5C74.4197 23.5 74.4204 23.5 74.421 23.5C89.0927 23.5011 100.98 35.2955 100.98 49.8332C100.98 64.1592 89.4401 75.8187 75.0672 76.1599L74.7129 76.1641L74.4191 76.1676H74.4161H24.4398V76.1569L23.9339 76.1629L23.5398 76.1676C23.5388 76.1676 23.5378 76.1676 23.5368 76.1676Z" fill="#9FCDF7" stroke="black"/>
</svg>
