<svg width="16" height="16" viewBox="0 0 16 16" fill="none" xmlns="http://www.w3.org/2000/svg">
<path fill-rule="evenodd" clip-rule="evenodd" d="M0.42905 0.390524C0.949745 -0.130175 1.79396 -0.130175 2.31465 0.390524L8.01921 6.09512L13.6853 0.428942C14.206 -0.0917564 15.0503 -0.0917564 15.5709 0.428942C16.0916 0.949641 16.0916 1.79386 15.5709 2.31456L9.90481 7.98074L15.6095 13.6854C16.1302 14.2061 16.1302 15.0504 15.6095 15.5711C15.0888 16.0918 14.2446 16.0918 13.7239 15.5711L8.01921 9.86635L2.27613 15.6095C1.75543 16.1302 0.911217 16.1302 0.390521 15.6095C-0.130174 15.0888 -0.130174 14.2446 0.390521 13.7239L6.13361 7.98074L0.42905 2.27614C-0.0916447 1.75544 -0.0916447 0.911223 0.42905 0.390524Z" fill="#D9D9D9"/>
</svg>
