<svg width="800" height="800" viewBox="0 0 800 800" fill="none" xmlns="http://www.w3.org/2000/svg">
<path d="M56 400C56 445.175 64.8978 489.907 82.1854 531.643C99.4731 573.379 124.812 611.301 156.755 643.245C188.699 675.188 226.621 700.527 268.357 717.815C310.093 735.102 354.825 744 400 744C445.175 744 489.907 735.102 531.643 717.815C573.379 700.527 611.301 675.188 643.245 643.245C675.188 611.301 700.527 573.379 717.815 531.643C735.102 489.907 744 445.175 744 400C744 308.766 707.757 221.268 643.245 156.755C578.732 92.2427 491.234 56 400 56C308.766 56 221.268 92.2427 156.755 156.755C92.2428 221.268 56 308.766 56 400Z" fill="#FA870B"/>
</svg>
