<svg width="800" height="800" viewBox="0 0 800 800" fill="none" xmlns="http://www.w3.org/2000/svg">
<path d="M188.304 357.08C188.304 384.011 193.609 410.679 203.915 435.561C214.221 460.442 229.327 483.05 248.37 502.093C267.414 521.137 290.022 536.243 314.903 546.549C339.785 556.855 366.452 562.16 393.384 562.16C420.315 562.16 446.983 556.855 471.865 546.549C496.746 536.243 519.354 521.137 538.397 502.093C557.441 483.05 572.547 460.442 582.853 435.561C593.159 410.679 598.464 384.011 598.464 357.08C598.464 302.689 576.857 250.526 538.397 212.067C499.937 173.607 447.775 152 393.384 152C338.993 152 286.83 173.607 248.371 212.067C209.911 250.526 188.304 302.689 188.304 357.08Z" fill="#F2FAFE"/>
<path d="M218.304 654.768V654.736L215.592 654.768C128.384 654.768 57.52 585.408 56.024 499.28L56 496.52C56 409.12 127.456 338.264 215.6 338.264C296 338.264 362.512 397.224 373.576 473.912H377.072V472.848C377.072 373.376 457.576 292.552 557.496 290.944L560.536 290.92C661.856 290.92 744 372.376 744 472.84C744 573.32 661.856 654.768 560.536 654.768L562.568 654.744V654.768H218.312H218.304Z" fill="#DFF1FB"/>
</svg>
