<svg width="800" height="800" viewBox="0 0 800 800" fill="none" xmlns="http://www.w3.org/2000/svg">
<path d="M218.304 692.768V692.736L215.592 692.768C128.384 692.768 57.52 623.408 56.024 537.28L56 534.52C56 447.12 127.456 376.264 215.6 376.264C296 376.264 362.512 435.224 373.576 511.912H377.072V510.848C377.072 411.376 457.576 330.552 557.496 328.944L560.536 328.92C661.856 328.92 744 410.376 744 510.84C744 611.32 661.856 692.768 560.536 692.768L562.568 692.744V692.768H218.312H218.304Z" fill="#DFF1FB"/>
<path d="M148.616 242.92H651.376C673.429 242.92 684.456 253.947 684.456 276V275.992C684.456 298.045 673.429 309.072 651.376 309.072H148.616C126.563 309.072 115.536 298.045 115.536 275.992V276C115.536 253.947 126.563 242.92 148.616 242.92Z" fill="#DFF1FB"/>
<path d="M406.616 104H605.072C627.125 104 638.152 115.027 638.152 137.08V137.072C638.152 159.125 627.125 170.152 605.072 170.152H406.616C384.563 170.152 373.536 159.125 373.536 137.072V137.08C373.536 115.027 384.563 104 406.616 104Z" fill="white"/>
<path d="M201.544 104H307.384C329.437 104 340.464 115.027 340.464 137.08V137.072C340.464 159.125 329.437 170.152 307.384 170.152H201.544C179.491 170.152 168.464 159.125 168.464 137.072V137.08C168.464 115.027 179.491 104 201.544 104Z" fill="#DFF1FB"/>
</svg>
