<svg width="800" height="800" viewBox="0 0 800 800" fill="none" xmlns="http://www.w3.org/2000/svg">
<path d="M194.768 354.696C194.768 408.454 216.123 460.011 254.136 498.024C292.149 536.037 343.706 557.392 397.464 557.392C451.222 557.392 502.779 536.037 540.792 498.024C578.805 460.011 600.16 408.454 600.16 354.696C600.16 300.938 578.805 249.381 540.792 211.368C502.779 173.355 451.222 152 397.464 152C343.706 152 292.149 173.355 254.136 211.368C216.123 249.381 194.768 300.938 194.768 354.696Z" fill="#FA870B"/>
<path d="M224.416 648.92V648.896L221.736 648.92C135.536 648.92 65.496 580.36 64.024 495.24L64 492.504C64 406.12 134.624 336.088 221.736 336.088C301.2 336.088 366.944 394.36 377.88 470.152H381.336V469.112C381.336 370.792 460.904 290.912 559.664 289.32L562.664 289.296C662.816 289.304 744 369.808 744 469.12C744 568.432 662.816 648.928 562.664 648.928L564.68 648.904V648.928H224.424L224.416 648.92Z" fill="#DFF1FB"/>
</svg>
