<svg width="800" height="800" viewBox="0 0 800 800" fill="none" xmlns="http://www.w3.org/2000/svg">
<path d="M188.304 269.08C188.304 296.011 193.609 322.679 203.915 347.561C214.221 372.442 229.327 395.05 248.371 414.093C267.414 433.137 290.022 448.243 314.903 458.549C339.785 468.855 366.453 474.16 393.384 474.16C420.316 474.16 446.983 468.855 471.865 458.549C496.746 448.243 519.354 433.137 538.398 414.093C557.441 395.05 572.547 372.442 582.853 347.561C593.16 322.679 598.464 296.011 598.464 269.08C598.464 214.689 576.858 162.527 538.398 124.067C499.938 85.6066 447.775 64 393.384 64C338.994 64 286.831 85.6066 248.371 124.067C209.911 162.527 188.304 214.689 188.304 269.08Z" fill="#FA870B"/>
<path d="M218.304 566.768V566.736L215.592 566.768C128.384 566.768 57.52 497.408 56.024 411.28L56 408.52C56 321.12 127.456 250.264 215.6 250.264C296 250.264 362.512 309.224 373.576 385.912H377.072V384.848C377.072 285.376 457.576 204.552 557.496 202.944L560.536 202.92C661.856 202.92 744 284.376 744 384.84C744 485.32 661.856 566.768 560.536 566.768L562.568 566.744V566.768H218.312H218.304Z" fill="#DFF1FB"/>
<path d="M224.688 613.08C240.123 613.08 247.84 620.797 247.84 636.232V709.008C247.84 724.443 240.123 732.16 224.688 732.16C209.253 732.16 201.536 724.443 201.536 709.008V636.232C201.536 620.797 209.253 613.08 224.688 613.08Z" fill="#DFF1FB"/>
<path d="M337.152 593.232C352.587 593.232 360.304 600.949 360.304 616.384V689.16C360.304 704.595 352.587 712.312 337.152 712.312C321.717 712.312 314 704.595 314 689.16V616.384C314 600.949 321.717 593.232 337.152 593.232Z" fill="#DFF1FB"/>
<path d="M449.616 613.08C465.051 613.08 472.768 620.797 472.768 636.232V709.008C472.768 724.443 465.051 732.16 449.616 732.16C434.181 732.16 426.464 724.443 426.464 709.008V636.232C426.464 620.797 434.181 613.08 449.616 613.08Z" fill="#DFF1FB"/>
<path d="M562.072 593.232C577.507 593.232 585.224 600.949 585.224 616.384V689.16C585.224 704.595 577.507 712.312 562.072 712.312C546.637 712.312 538.92 704.595 538.92 689.16V616.384C538.92 600.949 546.637 593.232 562.072 593.232Z" fill="#DFF1FB"/>
</svg>
