<svg width="800" height="800" viewBox="0 0 800 800" fill="none" xmlns="http://www.w3.org/2000/svg">
<path d="M97.6959 638.064H389.584C412.747 638.064 424.328 649.645 424.328 672.808V672.816C424.328 695.979 412.747 707.56 389.584 707.56H97.6959C74.5332 707.56 62.9519 695.979 62.9519 672.816V672.808C62.9519 649.645 74.5332 638.064 97.6959 638.064Z" fill="#DFF1FB"/>
<path d="M97.696 506.024C88.4803 506.024 79.642 502.363 73.1254 495.847C66.6089 489.33 62.948 480.492 62.948 471.276C62.948 462.06 66.6089 453.222 73.1254 446.705C79.642 440.189 88.4803 436.528 97.696 436.528H570.256C571.808 436.528 573.336 436.624 574.824 436.824C642.096 441.344 695.352 496.984 695.352 565.088C695.352 636.16 637.36 693.656 565.976 693.656C514.984 693.656 469.336 664.056 448.384 618.76C444.543 610.518 444.087 601.098 447.113 592.523C450.139 583.948 456.406 576.901 464.57 572.895C472.733 568.889 482.141 568.242 490.776 571.095C499.41 573.947 506.582 580.071 510.752 588.152L511.456 589.576C521.112 610.456 542.256 624.16 565.976 624.16C599.112 624.16 625.856 597.648 625.856 565.088C625.856 533.128 600.08 506.984 567.776 506.048L565.976 506.024H97.696ZM132.448 283.64C123.233 283.64 114.396 287.301 107.88 293.816C101.365 300.332 97.704 309.169 97.704 318.384C97.704 327.599 101.365 336.436 107.88 342.952C114.396 349.467 123.233 353.128 132.448 353.128H466.024C467.568 353.128 469.088 353.032 470.584 352.832C537.848 348.32 591.112 292.672 591.112 224.568C591.112 153.496 533.112 96 461.736 96C410.744 96 365.096 125.6 344.136 170.896C340.184 179.154 339.651 188.638 342.653 197.287C345.655 205.935 351.949 213.05 360.167 217.083C368.386 221.117 377.864 221.744 386.542 218.829C395.22 215.913 402.397 209.69 406.512 201.512L407.208 200.08C416.872 179.2 438.008 165.496 461.736 165.496C494.872 165.496 521.616 192.008 521.616 224.568C521.616 256.528 495.832 282.672 463.536 283.608L461.736 283.64H132.448ZM666.264 287.12L733.576 354.424C735.076 355.924 735.918 357.959 735.918 360.08C735.918 362.201 735.076 364.236 733.576 365.736L666.264 433.048C664.764 434.548 662.729 435.39 660.608 435.39C658.487 435.39 656.452 434.548 654.952 433.048L587.64 365.736C586.14 364.236 585.298 362.201 585.298 360.08C585.298 357.959 586.14 355.924 587.64 354.424L654.952 287.112C656.452 285.612 658.487 284.77 660.608 284.77C662.729 284.77 664.764 285.612 666.264 287.112V287.12Z" fill="#DFF1FB"/>
<path d="M249.296 115.064L287.12 152.88C288.62 154.38 289.462 156.415 289.462 158.536C289.462 160.657 288.62 162.692 287.12 164.192L249.296 202.024C248.553 202.768 247.671 203.358 246.7 203.76C245.728 204.163 244.687 204.37 243.636 204.37C242.585 204.37 241.544 204.163 240.573 203.76C239.601 203.358 238.719 202.768 237.976 202.024L200.16 164.2C198.66 162.7 197.818 160.665 197.818 158.544C197.818 156.423 198.66 154.388 200.16 152.888L237.984 115.064C238.727 114.32 239.609 113.73 240.581 113.328C241.552 112.925 242.593 112.718 243.644 112.718C244.695 112.718 245.736 112.925 246.708 113.328C247.679 113.73 248.561 114.32 249.304 115.064H249.296ZM117.256 115.064L155.08 152.888C156.58 154.388 157.422 156.423 157.422 158.544C157.422 160.665 156.58 162.7 155.08 164.2L117.256 202.032C116.513 202.776 115.631 203.366 114.66 203.768C113.688 204.171 112.647 204.378 111.596 204.378C110.545 204.378 109.504 204.171 108.533 203.768C107.561 203.366 106.679 202.776 105.936 202.032L68.1121 164.2C66.6123 162.7 65.7698 160.665 65.7698 158.544C65.7698 156.423 66.6123 154.388 68.1121 152.888L105.936 115.064C106.679 114.32 107.561 113.73 108.533 113.328C109.504 112.925 110.545 112.718 111.596 112.718C112.647 112.718 113.688 112.925 114.66 113.328C115.631 113.73 116.513 114.32 117.256 115.064Z" fill="#DFF1FB"/>
</svg>
