<svg width="800" height="800" viewBox="0 0 800 800" fill="none" xmlns="http://www.w3.org/2000/svg">
<path d="M188.304 261.08C188.304 288.011 193.609 314.679 203.915 339.561C214.221 364.442 229.327 387.05 248.37 406.093C267.414 425.137 290.022 440.243 314.903 450.549C339.785 460.855 366.452 466.16 393.384 466.16C420.315 466.16 446.983 460.855 471.865 450.549C496.746 440.243 519.354 425.137 538.397 406.093C557.441 387.05 572.547 364.442 582.853 339.561C593.159 314.679 598.464 288.011 598.464 261.08C598.464 206.689 576.857 154.526 538.397 116.067C499.937 77.6066 447.775 56 393.384 56C338.993 56 286.83 77.6066 248.371 116.067C209.911 154.526 188.304 206.689 188.304 261.08Z" fill="#FA870B"/>
<path d="M218.304 558.768V558.736L215.592 558.768C128.384 558.768 57.52 489.408 56.024 403.28L56 400.52C56 313.12 127.456 242.264 215.6 242.264C296 242.264 362.512 301.224 373.576 377.912H377.072V376.848C377.072 277.376 457.576 196.552 557.496 194.944L560.536 194.92C661.856 194.92 744 276.376 744 376.84C744 477.32 661.856 558.768 560.536 558.768L562.568 558.744V558.768H218.312H218.304Z" fill="#DFF1FB"/>
<path d="M221.384 591.848H221.376C243.429 591.848 254.456 602.875 254.456 624.928V624.92C254.456 646.973 243.429 658 221.376 658H221.384C199.331 658 188.304 646.973 188.304 624.92V624.928C188.304 602.875 199.331 591.848 221.384 591.848Z" fill="#DFF1FB"/>
<path d="M340.464 591.848H340.456C362.509 591.848 373.536 602.875 373.536 624.928V624.92C373.536 646.973 362.509 658 340.456 658H340.464C318.411 658 307.384 646.973 307.384 624.92V624.928C307.384 602.875 318.411 591.848 340.464 591.848Z" fill="#DFF1FB"/>
<path d="M459.544 591.848H459.536C481.589 591.848 492.616 602.875 492.616 624.928V624.92C492.616 646.973 481.589 658 459.536 658H459.544C437.491 658 426.464 646.973 426.464 624.92V624.928C426.464 602.875 437.491 591.848 459.544 591.848Z" fill="#DFF1FB"/>
<path d="M578.616 591.848H578.608C600.661 591.848 611.688 602.875 611.688 624.928V624.92C611.688 646.973 600.661 658 578.608 658H578.616C556.563 658 545.536 646.973 545.536 624.92V624.928C545.536 602.875 556.563 591.848 578.616 591.848Z" fill="#DFF1FB"/>
<path d="M519.08 677.848H519.072C541.125 677.848 552.152 688.875 552.152 710.928V710.92C552.152 732.973 541.125 744 519.072 744H519.08C497.027 744 486 732.973 486 710.92V710.928C486 688.875 497.027 677.848 519.08 677.848Z" fill="#DFF1FB"/>
<path d="M400 677.848H399.992C422.045 677.848 433.072 688.875 433.072 710.928V710.92C433.072 732.973 422.045 744 399.992 744H400C377.947 744 366.92 732.973 366.92 710.92V710.928C366.92 688.875 377.947 677.848 400 677.848Z" fill="#DFF1FB"/>
<path d="M280.928 677.848H280.92C302.973 677.848 314 688.875 314 710.928V710.92C314 732.973 302.973 744 280.92 744H280.928C258.875 744 247.848 732.973 247.848 710.92V710.928C247.848 688.875 258.875 677.848 280.928 677.848Z" fill="#DFF1FB"/>
</svg>
